<?xml version="1.0" standalone="no"?>
<!DOCTYPE svg PUBLIC "-//W3C//DTD SVG 20010904//EN"
 "http://www.w3.org/TR/2001/REC-SVG-20010904/DTD/svg10.dtd">
<svg version="1.0" xmlns="http://www.w3.org/2000/svg"
 width="1280.000000pt" height="818.000000pt" viewBox="0 0 1280.000000 818.000000"
 preserveAspectRatio="xMidYMid meet">
<metadata>
Created by potrace 1.15, written by Peter Selinger 2001-2017
</metadata>
<g transform="translate(0.000000,818.000000) scale(0.100000,-0.100000)"
fill="#000000" stroke="none">
<path d="M1830 8170 c-229 -9 -251 -13 -444 -89 -164 -65 -191 -85 -212 -159
-22 -77 -54 -122 -124 -171 -121 -85 -182 -107 -680 -241 -145 -40 -281 -80
-302 -91 -72 -37 -84 -102 -43 -224 64 -193 147 -328 266 -439 107 -99 187
-135 336 -151 104 -11 129 -17 213 -56 87 -40 102 -44 175 -44 65 0 93 5 148
28 74 30 155 35 232 16 68 -17 79 -36 85 -145 5 -83 9 -98 35 -135 67 -94 200
-131 384 -110 134 16 132 17 267 -121 83 -85 110 -120 150 -198 40 -77 68
-115 154 -205 58 -60 122 -135 142 -167 131 -196 221 -432 317 -826 21 -89 49
-183 61 -207 13 -28 50 -70 93 -108 121 -106 144 -133 257 -303 200 -303 243
-480 280 -1174 13 -244 13 -435 -1 -655 -9 -137 -9 -222 0 -355 14 -209 12
-219 -70 -515 -108 -393 -100 -377 -209 -368 -77 7 -159 -16 -272 -74 -94 -49
-155 -133 -145 -202 5 -42 42 -128 66 -155 53 -61 175 -84 344 -67 67 7 136
15 152 18 29 6 29 5 -18 -37 -68 -61 -101 -128 -101 -210 0 -41 6 -77 17 -96
22 -43 79 -91 124 -104 21 -6 142 -16 268 -22 287 -13 304 -10 417 87 88 75
107 114 127 255 24 164 59 276 135 429 49 96 60 109 120 131 56 21 80 62 102
172 17 81 19 134 16 414 -2 279 1 355 22 586 14 145 37 345 51 444 13 98 29
271 35 384 13 245 27 318 79 416 22 41 46 92 52 113 12 40 12 40 73 45 34 3
122 8 197 10 222 9 402 39 814 136 138 33 327 75 420 94 94 20 209 47 255 61
91 27 273 73 486 124 72 17 171 47 220 66 138 55 420 197 514 259 90 59 128
69 167 41 25 -17 148 -209 216 -335 25 -47 68 -139 95 -205 73 -176 178 -401
204 -438 62 -89 203 -255 303 -357 61 -63 157 -172 212 -241 61 -75 133 -152
181 -191 189 -157 389 -441 438 -623 27 -104 29 -339 5 -578 -12 -114 -25
-215 -28 -223 -6 -17 -24 -21 -121 -28 -98 -7 -162 -38 -252 -122 -129 -122
-150 -167 -115 -251 66 -157 243 -196 535 -119 52 14 106 28 120 32 14 3 -7
-10 -46 -29 -138 -68 -190 -137 -181 -243 4 -61 5 -63 75 -133 46 -46 85 -77
114 -87 57 -21 312 -30 432 -15 121 15 153 36 203 138 21 43 56 108 77 146 47
83 53 136 37 313 -16 171 -22 877 -10 1079 5 88 16 208 25 267 23 161 10 196
-108 289 -119 94 -248 258 -357 454 -81 146 -115 236 -164 440 l-42 170 1 250
c0 219 4 285 33 530 42 347 45 518 12 673 -37 175 -106 368 -201 559 -73 147
-86 181 -78 199 12 27 92 88 141 109 37 15 449 58 742 76 240 14 550 58 640
90 91 33 463 225 525 272 199 150 1011 962 1052 1053 26 56 -58 78 -186 50
-103 -23 -176 -63 -276 -149 -115 -99 -652 -502 -842 -630 -176 -120 -337
-197 -502 -244 -87 -24 -109 -25 -491 -35 -499 -12 -1054 -3 -1167 18 -43 8
-161 41 -262 74 -213 69 -242 76 -554 135 -328 63 -420 67 -1047 56 -565 -11
-591 -13 -1055 -72 -387 -50 -598 -59 -774 -35 -65 10 -279 57 -475 106 -803
200 -852 217 -1129 389 -70 43 -160 95 -200 115 -60 30 -119 78 -315 258 -228
209 -497 473 -738 723 -109 114 -178 163 -278 199 -48 17 -84 20 -261 22 -113
1 -297 -2 -410 -6z m602 -64 c149 -32 165 -45 573 -467 77 -80 221 -219 320
-309 99 -91 229 -212 290 -270 82 -78 124 -111 161 -124 27 -10 128 -67 225
-127 276 -171 315 -185 1024 -364 507 -128 586 -143 770 -152 142 -6 254 2
615 47 423 53 521 61 865 70 526 14 873 12 990 -5 187 -28 539 -107 705 -158
242 -74 323 -93 445 -108 131 -15 1176 -21 1355 -7 246 18 467 98 706 256 202
133 692 496 884 655 117 97 211 145 300 153 l65 7 -25 -29 c-225 -255 -340
-374 -638 -661 -322 -309 -379 -352 -617 -468 -104 -51 -217 -102 -250 -114
-85 -29 -410 -79 -605 -91 -91 -6 -232 -17 -315 -25 -82 -7 -197 -16 -255 -20
-58 -3 -128 -11 -157 -16 -106 -21 -233 -132 -233 -204 0 -19 25 -82 61 -156
83 -168 140 -305 178 -423 81 -253 87 -374 36 -791 -69 -572 -56 -862 51
-1185 87 -260 312 -597 503 -754 90 -74 98 -93 83 -195 -29 -189 -34 -326 -33
-796 0 -269 5 -524 10 -565 6 -41 11 -112 11 -157 0 -75 -3 -87 -35 -145 -19
-34 -50 -94 -69 -133 -18 -38 -44 -80 -58 -92 -37 -35 -121 -45 -313 -41 -191
5 -238 17 -269 68 -9 17 -30 37 -46 45 -43 22 -57 74 -35 130 29 76 114 133
252 171 55 15 69 23 89 54 63 95 94 245 94 452 0 117 -2 140 -16 145 -8 3 -20
1 -26 -5 -6 -6 -19 -86 -30 -178 -22 -191 -43 -258 -96 -313 -34 -34 -50 -41
-178 -74 -286 -75 -420 -69 -497 23 -34 40 -43 89 -23 128 19 36 136 145 193
178 31 19 63 27 135 33 104 9 131 19 152 59 41 81 65 678 33 822 -19 86 -77
211 -137 301 -83 121 -242 309 -304 357 -73 58 -125 112 -236 247 -45 55 -124
143 -175 195 -96 99 -253 286 -298 355 -28 43 -90 178 -188 409 -33 77 -82
182 -110 234 -72 135 -189 312 -229 346 -30 25 -40 28 -85 24 -42 -4 -70 -16
-155 -70 -119 -74 -233 -133 -401 -206 -136 -59 -170 -70 -389 -122 -91 -21
-252 -63 -357 -94 -104 -30 -264 -69 -354 -86 -90 -17 -216 -44 -279 -60 -484
-121 -789 -170 -1061 -170 -148 0 -149 0 -149 -58 0 -15 -22 -72 -50 -127 -59
-119 -74 -194 -90 -472 -6 -100 -19 -246 -30 -325 -65 -462 -74 -590 -75
-1023 -1 -430 -5 -487 -46 -539 -11 -13 -32 -27 -49 -31 -45 -10 -76 -40 -119
-113 -73 -127 -129 -300 -160 -493 -11 -64 -26 -130 -35 -147 -22 -42 -131
-129 -179 -142 -45 -13 -413 -4 -497 12 -125 24 -166 152 -87 269 30 45 116
95 186 109 147 29 221 79 279 189 41 76 56 118 97 271 18 69 45 165 59 214 14
48 26 102 26 120 0 76 -66 102 -114 45 -42 -49 -95 -151 -125 -240 -16 -46
-45 -111 -65 -144 -20 -33 -47 -96 -61 -140 -39 -129 -97 -203 -176 -225 -67
-19 -373 -41 -428 -30 -64 12 -115 39 -119 64 -2 10 -15 34 -28 53 -29 43 -30
59 -5 98 43 68 95 102 225 145 57 19 81 21 138 16 90 -8 121 7 154 77 13 29
24 60 24 69 0 9 23 90 51 180 93 302 104 355 99 503 -6 218 -5 440 4 665 9
221 2 414 -30 785 -20 247 -39 367 -79 506 -41 140 -73 208 -168 349 -125 186
-167 238 -248 305 -43 36 -90 83 -104 103 -17 25 -43 109 -79 253 -61 245
-107 388 -173 538 -86 198 -147 293 -281 435 -99 105 -138 160 -188 261 -21
43 -60 91 -139 171 -135 134 -144 138 -311 122 -130 -13 -202 -3 -271 37 -59
35 -75 71 -82 186 -5 75 -10 102 -25 117 -27 30 -100 53 -191 59 -72 5 -90 2
-171 -26 -123 -42 -165 -41 -273 8 -106 48 -142 57 -251 65 -129 10 -189 42
-316 169 -89 89 -107 114 -147 197 -58 119 -99 243 -95 282 2 19 13 38 29 50
15 11 162 57 335 104 463 126 541 155 661 240 70 50 113 108 133 179 7 25 22
55 34 68 24 26 200 98 316 129 127 34 734 51 862 24z m1618 -6857 c0 -45 -128
-475 -162 -544 -45 -93 -110 -150 -200 -176 -36 -10 -35 -4 3 28 45 38 75 90
105 185 15 45 44 114 66 151 22 38 53 107 69 154 39 117 119 252 119 202z
m5945 -618 c-3 -6 -14 -11 -23 -11 -13 0 -13 2 4 14 21 15 30 14 19 -3z"/>
</g>
</svg>
